<?xml version="1.0" encoding="UTF-8" standalone="no"?>
<!DOCTYPE svg PUBLIC "-//W3C//DTD SVG 1.1//EN" "http://www.w3.org/Graphics/SVG/1.1/DTD/svg11.dtd">
<svg width="100%" height="100%" viewBox="0 0 256 256" version="1.1" xmlns="http://www.w3.org/2000/svg" xmlns:xlink="http://www.w3.org/1999/xlink" xml:space="preserve" xmlns:serif="http://www.serif.com/" style="fill-rule:evenodd;clip-rule:evenodd;stroke-linecap:round;stroke-linejoin:round;stroke-miterlimit:1.5;">
    <g id="Almond">
        <g transform="matrix(3.04762,0,0,3.07112,-18.2857,-26.4505)">
            <path d="M90,60.871C90,60.871 87.162,38.898 42.743,37.34C18.573,36.493 27.432,72.412 27.849,80.522C28.161,86.594 45.177,85.028 45.205,85.025C87.421,80.759 89.968,63.763 90,60.871" style="fill:url(#_Linear1);"/>
        </g>
        <g transform="matrix(3.04762,0,0,3.04762,-18.2857,-24.3762)">
            <path d="M30.728,14C30.728,14 6.769,18.341 6,59.64C7.322,86.592 30.853,86 30.853,86C30.853,86 55.76,85.403 55.76,59.244C55.76,33.085 38.566,13.713 30.728,14" style="fill:url(#_Linear2);"/>
        </g>
        <g transform="matrix(3.04762,0,0,3.04762,-18.2857,-24.3762)">
            <path d="M21.591,73.638C21.591,73.638 18.355,66.066 18.211,59.62C17.877,44.593 21.327,36.913 24.094,30.457" style="fill:none;stroke:url(#_Linear3);stroke-width:2.73px;"/>
        </g>
        <g transform="matrix(-3.04762,0,0,3.04762,166.267,-24.3762)">
            <path d="M21.591,73.638C21.591,73.638 18.355,66.066 18.211,59.62C17.877,44.593 21.327,36.913 24.094,30.457" style="fill:none;stroke:url(#_Linear4);stroke-width:2.73px;"/>
        </g>
    </g>
    <defs>
        <linearGradient id="_Linear1" x1="0" y1="0" x2="1" y2="0" gradientUnits="userSpaceOnUse" gradientTransform="matrix(64.0747,0,0,48.6916,25.9253,61.6715)"><stop offset="0" style="stop-color:rgb(113,49,0);stop-opacity:1"/><stop offset="1" style="stop-color:rgb(181,88,16);stop-opacity:1"/></linearGradient>
        <linearGradient id="_Linear2" x1="0" y1="0" x2="1" y2="0" gradientUnits="userSpaceOnUse" gradientTransform="matrix(4.10025e-15,-66.9622,96.8947,5.93309e-15,30.8801,82.5408)"><stop offset="0" style="stop-color:rgb(197,107,22);stop-opacity:1"/><stop offset="1" style="stop-color:rgb(208,136,48);stop-opacity:1"/></linearGradient>
        <linearGradient id="_Linear3" x1="0" y1="0" x2="1" y2="0" gradientUnits="userSpaceOnUse" gradientTransform="matrix(2.95261,-43.1812,315.758,21.5906,21.1413,73.6378)"><stop offset="0" style="stop-color:rgb(144,60,21);stop-opacity:1"/><stop offset="1" style="stop-color:rgb(173,82,17);stop-opacity:1"/></linearGradient>
        <linearGradient id="_Linear4" x1="0" y1="0" x2="1" y2="0" gradientUnits="userSpaceOnUse" gradientTransform="matrix(2.95261,-43.1812,315.758,21.5906,21.1413,73.6378)"><stop offset="0" style="stop-color:rgb(144,60,21);stop-opacity:1"/><stop offset="1" style="stop-color:rgb(173,82,17);stop-opacity:1"/></linearGradient>
    </defs>
</svg>
