<svg xmlns="http://www.w3.org/2000/svg" xml:space="preserve" fill-rule="evenodd" stroke-linejoin="round" stroke-miterlimit="2" clip-rule="evenodd" viewBox="0 0 3000 3000">
  <circle cx="1500" cy="1500" r="1500" fill="#c281e4"/>
  <path fill="#d7c0ef" d="M1500 0c827.9 0 1500 672.1 1500 1500s-672.1 1500-1500 1500S0 2327.9 0 1500 672.1 0 1500 0Zm0 36c808 0 1464 656 1464 1464s-656 1464-1464 1464S36 2308 36 1500 692 36 1500 36Z"/>
  <g>
    <path fill="#f5e2ff" d="M2352.7 1236.5a267 267 0 0 1 266.8 266.9 267 267 0 0 1-266.8 266.8 267 267 0 0 1-266.9-266.8 267 267 0 0 1 266.9-266.9Zm-11 18.1-8.3.7a248.6 248.6 0 0 0-49.4 8.9l-8.1 2.3-7.9 2.8a247.2 247.2 0 0 0-45.3 21.9l-7.1 4.4-6.9 4.8a250.8 250.8 0 0 0-37.8 33.1l-5.8 6.2-5.3 6.5a250.3 250.3 0 0 0-27.7 42l-3.9 7.4-3.4 7.7a246.6 246.6 0 0 0-15.4 47.8l-1.8 8.2-1.2 8.3a248.6 248.6 0 0 0-2.1 50.2l.4 8.4 1 8.3a248 248 0 0 0 11.3 49l2.7 8 3.3 7.7a247.4 247.4 0 0 0 24 44.2l4.7 7 5.2 6.5a251.1 251.1 0 0 0 34.9 36.2l6.4 5.5 6.7 5a250 250 0 0 0 10.3 7.2l3.6 2.3c9.4 6 19.2 11.4 29.4 16.1l7.6 3.6 7.8 3c4 1.5 7.9 2.9 11.9 4.2l4 1.3c10.6 3.2 21.5 5.8 32.6 7.6l8.3 1.4 8.4.8a251.2 251.2 0 0 0 50.3-.3l8.3-.8 8.3-1.5a247.4 247.4 0 0 0 48.3-13.6l7.8-3 7.6-3.7c5-2.4 10-5 15-7.7l3.6-2.1c8.4-5 16.6-10.4 24.4-16.3l6.7-5 6.3-5.6a250.7 250.7 0 0 0 34.6-36.5l5.1-6.7 4.7-7a248.8 248.8 0 0 0 23.5-44.4l3.2-7.8 2.6-8a246.8 246.8 0 0 0 10.8-49l1-8.3.3-8.4a253.3 253.3 0 0 0-2.6-50.3l-1.3-8.3-1.8-8.1a246.6 246.6 0 0 0-16-47.7l-3.4-7.6-4-7.4c-2.7-5-5.5-9.8-8.4-14.5l-2.3-3.6a250 250 0 0 0-17.4-23.6l-5.4-6.5-5.8-6a250.9 250.9 0 0 0-38.2-32.8l-6.9-4.8-7.2-4.3a248.5 248.5 0 0 0-45.5-21.4l-7.9-2.8-8-2.2a247.1 247.1 0 0 0-49.6-8.4l-8.4-.5h-19.3Z"/>
    <path fill="none" stroke="#f5e2ff" stroke-linecap="round" stroke-opacity=".5" stroke-width="24" d="M381.5 906.8c590.3 0 603.6 1178.4 603.6 1178.4s96.8-781.7 418.5-781.7c321.8 0 410.8 789.7 410.8 789.7s127.7-583.8 269.4-572.5"/>
  </g>
</svg>
