<?xml version="1.0" encoding="UTF-8" standalone="no"?>
<!DOCTYPE svg PUBLIC "-//W3C//DTD SVG 1.1//EN" "http://www.w3.org/Graphics/SVG/1.1/DTD/svg11.dtd">
<svg width="100%" height="100%" viewBox="0 0 3000 3000" version="1.1" xmlns="http://www.w3.org/2000/svg" xmlns:xlink="http://www.w3.org/1999/xlink" xml:space="preserve" xmlns:serif="http://www.serif.com/" style="fill-rule:evenodd;clip-rule:evenodd;stroke-linejoin:round;stroke-miterlimit:2;">
    <g id="Circle">
        <circle cx="1500" cy="1500" r="1500" style="fill:rgb(194,129,228);"/>
        <path d="M1500,0C2327.87,0 3000,672.127 3000,1500C3000,2327.87 2327.87,3000 1500,3000C672.127,3000 0,2327.87 0,1500C0,672.127 672.127,0 1500,0ZM1500,36C2308,36 2964,691.996 2964,1500C2964,2308 2308,2964 1500,2964C691.996,2964 36,2308 36,1500C36,691.996 691.996,36 1500,36Z" style="fill:rgb(215,192,239);"/>
    </g>
    <g id="Animation" transform="matrix(1,0,0,1,-105.8,-147.965)">
        <g transform="matrix(1.47459,0,0,1.47459,1359.1,1060.78)">
            <circle cx="657.307" cy="398.205" r="331.162" style="fill:rgb(245,226,255);"/>
        </g>
        <g transform="matrix(1.34716,0,0,1.34716,996.729,1111.52)">
            <circle cx="657.307" cy="398.205" r="331.162" style="fill:rgb(245,226,255);fill-opacity:0.8;"/>
        </g>
        <g transform="matrix(1.18506,0,0,1.18506,710.83,1176.07)">
            <circle cx="657.307" cy="398.205" r="331.162" style="fill:rgb(245,226,255);fill-opacity:0.6;"/>
        </g>
        <g transform="matrix(1.02296,0,0,1.02296,478.612,1240.62)">
            <circle cx="657.307" cy="398.205" r="331.162" style="fill:rgb(245,226,255);fill-opacity:0.4;"/>
        </g>
        <g transform="matrix(0.837458,0,0,0.837458,261.779,1314.49)">
            <circle cx="657.307" cy="398.205" r="331.162" style="fill:rgb(245,226,255);fill-opacity:0.2;"/>
        </g>
    </g>
</svg>
