<?xml version="1.0" encoding="UTF-8" standalone="no"?><!DOCTYPE svg PUBLIC "-//W3C//DTD SVG 1.1//EN" "http://www.w3.org/Graphics/SVG/1.1/DTD/svg11.dtd"><svg width="100%" height="100%" viewBox="0 0 246 246" version="1.1" xmlns="http://www.w3.org/2000/svg" xmlns:xlink="http://www.w3.org/1999/xlink" xml:space="preserve" xmlns:serif="http://www.serif.com/" style="fill-rule:evenodd;clip-rule:evenodd;stroke-linecap:square;stroke-miterlimit:1.5;"><rect id="Background" x="0" y="0" width="245.76" height="245.76" style="fill:#2c0a0a;"/><g id="Flash" opacity="0.2"><path d="M22.74,152.849l170.311,-160.078l59.938,200.28l-230.249,-40.202Z" style="fill:none;stroke:#f52c2c;stroke-width:1px;"/><path d="M13.858,155.507l185.417,-174.276l65.254,218.044l-250.671,-43.768Z" style="fill:none;stroke:#f52c2c;stroke-width:1px;"/><path d="M4.189,158.401l201.861,-189.732l71.041,237.381l-272.902,-47.649Z" style="fill:none;stroke:#f52c2c;stroke-width:1px;"/><path d="M-6.337,161.551l219.763,-206.56l77.343,258.435l-297.106,-51.875Z" style="fill:none;stroke:#f52c2c;stroke-width:1px;"/><path d="M-17.798,164.981l239.255,-224.88l84.202,281.356l-323.457,-56.476Z" style="fill:none;stroke:#f52c2c;stroke-width:1px;"/><path d="M-30.275,168.715l260.475,-244.824l91.669,306.309l-352.144,-61.485Z" style="fill:none;stroke:#f52c2c;stroke-width:1px;"/><path d="M-43.858,172.78l283.576,-266.538l99.8,333.476l-383.376,-66.938Z" style="fill:none;stroke:#f52c2c;stroke-width:1px;"/><path d="M-58.646,177.205l308.726,-290.176l108.651,363.051l-417.377,-72.875Z" style="fill:none;stroke:#f52c2c;stroke-width:1px;"/><path d="M-74.745,182.024l336.107,-315.913l118.287,395.251l-454.394,-79.338Z" style="fill:none;stroke:#f52c2c;stroke-width:1px;"/><path d="M-92.273,187.269l365.917,-343.931l128.778,430.306l-494.695,-86.375Z" style="fill:none;stroke:#f52c2c;stroke-width:1px;"/><path d="M-111.355,192.98l398.37,-374.434l140.199,468.469l-538.569,-94.035Z" style="fill:none;stroke:#f52c2c;stroke-width:1px;"/><path d="M-132.129,199.197l433.701,-407.643l152.634,510.018l-586.335,-102.375Z" style="fill:none;stroke:#f52c2c;stroke-width:1px;"/><path d="M-154.746,205.965l472.166,-443.796l166.171,555.251l-638.337,-111.455Z" style="fill:none;stroke:#f52c2c;stroke-width:1px;"/><path d="M-179.368,213.334l514.042,-483.157l180.909,604.497l-694.951,-121.34Z" style="fill:none;stroke:#f52c2c;stroke-width:1px;"/><path d="M-206.175,221.357l559.633,-526.009l196.954,658.11l-756.587,-132.101Z" style="fill:none;stroke:#f52c2c;stroke-width:1px;"/><path d="M-235.359,230.091l609.267,-572.66l214.421,716.477l-823.688,-143.817Z" style="fill:none;stroke:#f52c2c;stroke-width:1px;"/><path d="M-267.131,239.599l663.303,-623.449l233.438,780.022l-896.741,-156.573Z" style="fill:none;stroke:#f52c2c;stroke-width:1px;"/></g><g id="Logo"><path id="Frame" d="M214.533,40.393c-0,-5.059 -4.107,-9.166 -9.166,-9.166l-164.974,0c-5.059,0 -9.166,4.107 -9.166,9.166l0,164.974c0,5.059 4.107,9.166 9.166,9.166l164.974,-0c5.059,-0 9.166,-4.107 9.166,-9.166l-0,-164.974Z" style="fill:#2c0a0a;stroke:#f52c2c;stroke-width:4px;"/><g id="Text"><path d="M80.577,168.834l16.804,0l-0,-37.422l30.641,0l0,-14.457l-30.641,0l-0,-26.224l36.378,-0l0,-14.457l-53.182,-0l-0,92.56Z" style="fill:url(#_Linear1);fill-rule:nonzero;"/><path d="M139.513,148.106c-0,19.036 11.333,21.38 20.455,21.38c2.738,0 5.215,-0.39 5.215,-0.39l0,-14.458c0,0 -1.173,0.13 -2.477,0.13c-4.303,0 -6.78,-1.825 -6.78,-9.127l-0,-69.367l-16.413,-0l-0,71.832Z" style="fill:url(#_Linear2);fill-rule:nonzero;"/></g></g><defs><linearGradient id="_Linear1" x1="0" y1="0" x2="1" y2="0" gradientUnits="userSpaceOnUse" gradientTransform="matrix(2e-06,0,0,2e-06,-47.8476,51.7241)"><stop offset="0" style="stop-color:#b21717;stop-opacity:1"/><stop offset="0.56" style="stop-color:#e82d2d;stop-opacity:1"/><stop offset="1" style="stop-color:#ff3636;stop-opacity:1"/></linearGradient><linearGradient id="_Linear2" x1="0" y1="0" x2="1" y2="0" gradientUnits="userSpaceOnUse" gradientTransform="matrix(2e-06,0,0,2e-06,-47.8476,51.7241)"><stop offset="0" style="stop-color:#b21717;stop-opacity:1"/><stop offset="0.56" style="stop-color:#e82d2d;stop-opacity:1"/><stop offset="1" style="stop-color:#ff3636;stop-opacity:1"/></linearGradient></defs></svg>