<?xml version="1.0" encoding="UTF-8" standalone="no"?>
<!DOCTYPE svg PUBLIC "-//W3C//DTD SVG 1.1//EN" "http://www.w3.org/Graphics/SVG/1.1/DTD/svg11.dtd">
<svg width="100%" height="100%" viewBox="0 0 3000 3000" version="1.1" xmlns="http://www.w3.org/2000/svg" xmlns:xlink="http://www.w3.org/1999/xlink" xml:space="preserve" xmlns:serif="http://www.serif.com/" style="fill-rule:evenodd;clip-rule:evenodd;stroke-linecap:round;stroke-linejoin:round;stroke-miterlimit:2;">
    <g id="Circle">
        <circle cx="1500" cy="1500" r="1500" style="fill:rgb(194,129,228);"/>
        <path d="M1500,0C2327.87,0 3000,672.127 3000,1500C3000,2327.87 2327.87,3000 1500,3000C672.127,3000 0,2327.87 0,1500C0,672.127 672.127,0 1500,0ZM1500,36C2308,36 2964,691.996 2964,1500C2964,2308 2308,2964 1500,2964C691.996,2964 36,2308 36,1500C36,691.996 691.996,36 1500,36Z" style="fill:rgb(215,192,239);"/>
    </g>
    <g id="Image-Editing" serif:id="Image Editing">
        <g>
            <g transform="matrix(0.788779,0,0,0.788779,237.904,317.583)">
                <rect x="733.799" y="632.783" width="1732.53" height="1732.53" style="fill:none;stroke:rgb(245,226,255);stroke-width:40.57px;"/>
            </g>
            <g transform="matrix(0.159516,0,0,0.159516,561.473,577.587)">
                <rect x="733.799" y="632.783" width="1732.53" height="1732.53" style="fill:rgb(245,226,255);"/>
            </g>
            <g transform="matrix(0.159516,0,0,0.159516,561.473,1944.17)">
                <rect x="733.799" y="632.783" width="1732.53" height="1732.53" style="fill:rgb(245,226,255);"/>
            </g>
            <g transform="matrix(0.159516,0,0,0.159516,1928.06,577.587)">
                <rect x="733.799" y="632.783" width="1732.53" height="1732.53" style="fill:rgb(245,226,255);"/>
            </g>
            <g transform="matrix(0.159516,0,0,0.159516,1928.06,1944.17)">
                <rect x="733.799" y="632.783" width="1732.53" height="1732.53" style="fill:rgb(245,226,255);"/>
            </g>
        </g>
        <path d="M2087.04,1063.91C2087.04,1003.74 2038.19,954.892 1978.02,954.892L1063.91,954.892C1003.74,954.892 954.892,1003.74 954.892,1063.91L954.892,1936.09C954.892,1996.26 1003.74,2045.11 1063.91,2045.11L1978.02,2045.11C2038.19,2045.11 2087.04,1996.26 2087.04,1936.09L2087.04,1063.91Z" style="fill:none;stroke:rgb(245,226,255);stroke-width:12px;stroke-linejoin:bevel;"/>
        <path d="M1061.65,2045.08L1463.79,1562.9L1616.86,1746.44L1892.63,1208.39L2087.04,1587.7L2087.04,1063.91C2087.04,1003.74 2038.19,954.892 1978.02,954.892L1063.91,954.892C1003.74,954.892 954.892,1003.74 954.892,1063.91L954.892,1936.09C954.892,1995.5 1002.52,2043.88 1061.65,2045.08ZM1221.73,1090.22C1276.43,1090.22 1320.84,1134.63 1320.84,1189.33C1320.84,1244.03 1276.43,1288.44 1221.73,1288.44C1167.03,1288.44 1122.62,1244.03 1122.62,1189.33C1122.62,1134.63 1167.03,1090.22 1221.73,1090.22Z" style="fill:rgb(245,226,255);"/>
    </g>
</svg>
