<svg xmlns="http://www.w3.org/2000/svg" xml:space="preserve" viewBox="0 0 512 512">
  <path d="M231 142c-4 1-3 5-5 5-3 0-2-5 5-5zm14 1c4-1 4 3 7 2 2 0 0-5-7-2zm152 290c-14 7-32 22-38 28-5 5-26 7-37 2-14-7-6-18-27-19a856 856 0 0 0-57 1c-32 0-35 21-54 20-14-1-31-11-61-18-20-4-40-5-44-14-5-9 5-19 5-28 1-12-9-28-1-35 6-5 19-1 27-6 9-5 13-9 13-20 3 11-1 21-8 25-4 3-13 4-19 3-6 0-9 1-11 3s-1 7 2 13c2 6 5 10 5 18 0 7-9 16-7 23 0 2 3 4 8 6l43 9c19 4 38 13 50 11 36-5 15-43 10-52-30-47-50-78-66-66-4 3-5-8-4-13 0-15 8-21 13-33 9-22 16-48 29-62 10-13 26-34 29-45l-4-73c0-24 4-45 31-60 7-4 15-5 24-5 17 0 35 4 46 13 18 13 30 42 28 63-1 16 2 33 7 50 6 20 16 35 32 51 18 20 33 59 37 83 4 23-1 37-7 38-7 1-12 25-35 24-15-1-17-10-21-17-7-12-13-8-16 4-1 7 0 16 2 23 4 15 2 29 0 45-5 33 23 39 41 24 18-16 22-18 45-26 35-12 24-22 5-29-17-5-18-34-12-39 2 30 18 35 24 39 29 18-11 33-27 41zm-78-89c3-4 7-5 12-5 0-18 29-17 39-9 0-4-9-8-13-10 6-21 3-30-1-49-3-16-17-36-28-42 3 2 8 9 14 19 9 18 19 44 12 66-2 8-7 9-11 9-17 2-7-19-14-49-8-32-15-35-17-38-10-42-21-38-24-54-2-14 13-26-8-30-6-1-15-7-18-8-4 0-6-23 7-24s16 14 13 20c-4 7 0 9 7 7 5-2 2-15 3-17-3-20-12-23-20-24-32 2-18 38-21 34-5-5-18 0-18-3 0-18-6-29-15-29s-13 13-13 20c-1 7 4 22 7 21s6-5 2-5c-2 0-5-5-5-12-1-6 1-12 9-12 10 1 10 19 9 20l-8 7c-3 5-9 6-11 8-4 4-5 9-2 11 11 6 8 13 23 13 9 1 17-1 23-3s22-6 26-12c1-2 3-2 5-2 2 2 2 6-3 8-9 2-17 6-24 9l-17 6c-15 2-27-6-16 4 3 3 6 5 15 5 20-1 42-24 44-14 0 2-6 5-12 8-18 9-31 27-42 21s-21-32-21-20c0 18-24 34-13 54-7 2-23 37-26 55-1 10 1 22-1 30-4 10-20-10-15-35 1-4 0-5-1-3-6 11-3 28 3 39 2 5 7 7 11 11 8 10 41 33 46 39 7 7 5 23-10 25 8 14 16 15 15 39 9-4 6-15 2-21-2-5-6-7-5-8 0-1 5-5 8-2 8 9 23 11 39 9s33-8 41-21c4-6 6-8 8-7s3 5 2 12c0 8-3 16-5 22-2 7-3 12 4 12 2-13 6-26 7-39 1-15-10-43 2-56zm-99-212c0 3 0 5 2 5l1-1c1-6-2-10-3-11-3 0-3 4-1 4 0-1 2 1 1 3zm53-8c-3 0-2 2 0 2 2 1 3 4 4 7l2-1c0-5-4-8-6-8z"/>
</svg>
