<svg xmlns="http://www.w3.org/2000/svg" viewBox="0 0 32 32">
  <path fill="#83cd29" d="M16 30a2.15 2.15 0 0 1-1.08-.29l-3.42-2.03c-.51-.28-.26-.38-.1-.44a6.83 6.83 0 0 0 1.56-.7.26.26 0 0 1 .25.02l2.63 1.56a.34.34 0 0 0 .32 0l10.26-5.92a.32.32 0 0 0 .16-.28V10.07a.33.33 0 0 0-.16-.28L16.16 3.88a.32.32 0 0 0-.32 0L5.6 9.79a.33.33 0 0 0-.17.29v11.84a.32.32 0 0 0 .17.27l2.81 1.62c1.52.77 2.46-.13 2.46-1.03v-11.7a.3.3 0 0 1 .3-.3h1.3a.3.3 0 0 1 .3.3v11.7c0 2.03-1.1 3.2-3.04 3.2a4.39 4.39 0 0 1-2.36-.65l-2.7-1.54a2.17 2.17 0 0 1-1.07-1.87V10.07A2.16 2.16 0 0 1 4.66 8.2l10.26-5.92a2.25 2.25 0 0 1 2.16 0L27.34 8.2a2.17 2.17 0 0 1 1.08 1.87v11.85a2.17 2.17 0 0 1-1.08 1.87L17.08 29.7A2.15 2.15 0 0 1 16 30Z"/>
  <path fill="#83cd29" d="M14.05 17.95a.3.3 0 0 1 .3-.3h1.33a.3.3 0 0 1 .3.25c.2 1.36.8 2.04 3.5 2.04 2.17 0 3.1-.5 3.1-1.64 0-.66-.27-1.15-3.63-1.48-2.8-.28-4.54-.9-4.54-3.15 0-2.07 1.74-3.3 4.67-3.3 3.28 0 4.91 1.14 5.12 3.59a.3.3 0 0 1-.3.32h-1.33a.3.3 0 0 1-.3-.23c-.31-1.42-1.1-1.88-3.2-1.88-2.35 0-2.63.83-2.63 1.44 0 .75.33.97 3.51 1.39 3.16.42 4.66 1 4.66 3.22 0 2.24-1.87 3.52-5.12 3.52-4.5 0-5.44-2.06-5.44-3.79Z"/>
</svg>
