<svg xmlns="http://www.w3.org/2000/svg" xml:space="preserve" style="fill-rule:evenodd;clip-rule:evenodd;stroke-linecap:round;stroke-linejoin:round;stroke-miterlimit:2" viewBox="0 0 3000 3000">
  <circle cx="1500" cy="1500" r="1500" style="fill:#c281e4"/>
  <path d="M1500 0c827.9 0 1500 672.1 1500 1500s-672.1 1500-1500 1500S0 2327.9 0 1500 672.1 0 1500 0Zm0 36c808 0 1464 656 1464 1464s-656 1464-1464 1464S36 2308 36 1500 692 36 1500 36Z" style="fill:#d7c0ef"/>
  <g>
    <path d="m1694.4 2390.3-97.2-585.6 507.4 156.4-410.2 429.2Zm23.7-77-75.9-457 396.1 122-320.2 335ZM2283.9 483.4c298.2 92 140.5 445.4 140.5 445.4L1917 772.4s68.7-381 366.9-289Zm-10.6 34.4c128.6 39.6 158.5 135.9 156.7 222a498 498 0 0 1-27.2 144.7l-443-136.6a498 498 0 0 1 59-134.9c47-72.2 125.9-134.9 254.5-95.2Z" style="fill:#f5e2ff"/>
    <path d="m1596.9 1805.6 507.4 156.5L2434 892l-507.4-156.4-329.8 1070Zm45-23.8 308.6-1001L2389.1 916l-308.6 1001-438.6-135.2Z" style="fill:#f5e2ff"/>
    <path d="M1692.3 2380.9s-1202.8 20.5-1202.8-227.2c0-247.8 1820.3 9.5 1820.3-104.9 0-114.3-1506.2-19-1506.2-152.4 0-133.5 1249.2-14.3 1249.2-85.8s-828-62-828-119.1c0-57.2 635.3-9.6 635.3-76.3s-459 29.6-459-80" style="fill:none;stroke:#f5e2ff;stroke-opacity:.6;stroke-width:18.18px"/>
  </g>
</svg>
