<svg xmlns="http://www.w3.org/2000/svg" xml:space="preserve" fill-rule="evenodd" stroke-linecap="round" stroke-linejoin="round" stroke-miterlimit="1.5" clip-rule="evenodd" viewBox="0 0 512 512">
  <path fill="none" d="M0 0h512v512H0z"/>
  <path fill="none" stroke="#ffe070" stroke-width="16.1" d="M389.9 187.1a76.5 76.5 0 0 0-34.8-63.9 75.7 75.7 0 0 0-41.3-12.2H85.4a76 76 0 0 0-76 76.1v228.4c0 42 34 76 76 76h228.4a76 76 0 0 0 76.1-76V187Z"/>
  <path fill="none" stroke="#ffe070" stroke-width="16.1" d="M9.3 409S122.7 263.9 151 264.3c27.3.4 211.6 208.1 211.6 208.1"/>
  <path fill="none" stroke="#ffe070" stroke-width="7" d="M272 308.3s-31.8-35.1-38.5-35.4c-5.8-.2-26.2 18.7-26.2 18.7" transform="matrix(2.208 0 0 2.358 -210.8 -342.3)"/>
  <path fill="#ffe070" fill-rule="nonzero" d="M505 16.1a19.4 19.4 0 0 0-27.5 0l-123.7 97.6a38.9 38.9 0 1 0 53.6 53.6L505 43.6a19.4 19.4 0 0 0 0-27.5Zm-15.3 15.5-97.6 123.6c-.4.5-.8 1-1.1 1.7a19.3 19.3 0 0 1-30.1 3.4 19.3 19.3 0 0 1 3.3-30.2l1.7-1.1 123.6-97.6 1.7-1.5-1.5 1.7Z"/>
  <path fill="#ffe070" fill-rule="nonzero" d="M325.9 146.8a50 50 0 0 0-26.1 7.3l-2.4 1.5a49.2 49.2 0 0 0-13 13l-1 1.9a51.8 51.8 0 0 0-3.5 6.6c-.2.5-.5.9-.6 1.4-11 27.5 17.3 29.2-59.5 77.7a217 217 0 0 0 53.7 7.2c60.6 0 87.3-30.9 87.3-30.9a50.6 50.6 0 0 0 0-71.1 49 49 0 0 0-35-14.6Zm21 72-.7.8c-.9 1-22.8 24.4-72.7 24.4h-2.8c20-17.1 24.6-29.7 24.9-47 0-4.4 0-7.2 1.6-11l.5-1.2c.6-1.4 1.3-2.8 2.4-4.6l.5-.7a30 30 0 0 1 7.7-7.8l1.6-1a30.6 30.6 0 0 1 16-4.5c8 0 15.4 3.2 21 8.8 12 12.1 12 31.8 0 43.8Z"/>
</svg>
