<svg xmlns="http://www.w3.org/2000/svg" xml:space="preserve" fill-rule="evenodd" stroke-linecap="round" stroke-linejoin="round" stroke-miterlimit="1.5" clip-rule="evenodd" viewBox="0 0 512 512">
  <path fill="none" d="M.69 0h512v512H.69z"/>
  <path fill="none" stroke="#45ec7d" stroke-width="9.61" d="m722.25 116.7 36.4-54.76 36.4 54.76h-72.8Z" transform="matrix(1.15 1.15 -1.2 1.2 -307.6 -925.5)"/>
  <path fill="none" stroke="#45ec7d" stroke-width="13.33" d="m275.38 322.93 57.58-57.57m-145.13-29.98 57.57-57.58M37.34 438 402.4 72.95M73.22 473.88l365.05-365.05m-204.25 80.28-36.2-36.19-44.21 44.21 36.2 36.2-159.01 159a31.01 31.01 0 0 0 0 43.84l43.83 43.84a31.01 31.01 0 0 0 43.84 0l159-159.01 168.6 168.6c5.23 5.23 15.43 3.53 22.75-3.79l17.68-17.68c7.33-7.32 9.02-17.51 3.79-22.75l-168.6-168.6 145.97-145.97L380 43.14 234.02 189.1Z"/>
  <path fill="none" stroke="#45ec7d" stroke-width="13.31" d="M23.81 85.76c-4.49 15.3-5.09 32.8-1.08 48.3 17.12 66.17 106.57 92.08 155.34 43.32 48.76-48.77 22.85-138.22-43.32-155.34-15.5-4-33-3.4-48.3 1.08l44.08 44.09v62.63H67.9L23.81 85.76Z"/>
</svg>
