<svg xmlns="http://www.w3.org/2000/svg" viewBox="0 0 256 192">
  <path fill="#CD6799" d="M220.28 110.51c-8.9.05-16.65 2.2-23.13 5.37-2.38-4.71-4.75-8.91-5.17-11.99-.47-3.59-1.03-5.78-.47-10.07s3.08-10.4 3.03-10.87c-.04-.46-.56-2.65-5.69-2.7-5.13-.05-9.56.98-10.07 2.33a56.3 56.3 0 0 0-2.14 7.6c-.9 4.67-10.26 21.31-15.62 30.03-1.73-3.4-3.22-6.39-3.55-8.76-.47-3.6-1.03-5.79-.47-10.08s3.08-10.4 3.04-10.86c-.05-.47-.56-2.66-5.7-2.7-5.12-.05-9.55.97-10.07 2.33-.5 1.35-1.07 4.52-2.14 7.6s-13.52 30.87-16.79 38.05a214.73 214.73 0 0 1-4.15 8.62s-.04.14-.18.38a117.77 117.77 0 0 1-1.4 2.66v.04c-.7 1.26-1.45 2.43-1.82 2.43-.28 0-.8-3.36.1-7.93 1.86-9.65 6.29-24.67 6.24-25.18 0-.28.84-2.9-2.9-4.25-3.63-1.35-4.93.9-5.26.9-.33 0-.56.78-.56.78s4.06-16.88-7.74-16.88c-7.37 0-17.53 8.07-22.57 15.35a6269.96 6269.96 0 0 0-17.16 9.37c-2.75 1.54-5.6 3.08-8.25 4.52-.19-.18-.38-.42-.56-.6-14.27-15.25-40.66-26.02-39.54-46.5.42-7.46 2.98-27.04 50.68-50.82 39.26-19.35 70.5-14 75.92-2.1 7.74 16.97-16.74 48.5-57.31 53.06-15.48 1.73-23.6-4.24-25.65-6.48-2.14-2.33-2.47-2.47-3.26-2-1.3.7-.47 2.8 0 4 1.2 3.18 6.2 8.77 14.64 11.53 7.46 2.42 25.6 3.77 47.56-4.71 24.58-9.52 43.79-35.96 38.15-58.1-5.65-22.48-42.95-29.9-78.25-17.35-20.98 7.46-43.74 19.21-60.1 34.5C2.51 59.22-.57 75.03.7 81.66c4.52 23.5 36.93 38.8 49.9 50.13l-1.78.98c-6.48 3.21-31.2 16.13-37.35 29.8-7 15.47 1.12 26.57 6.48 28.06 16.65 4.62 33.76-3.68 42.95-17.39 9.19-13.7 8.07-31.52 3.82-39.68a.79.79 0 0 0-.18-.28l5.08-2.99a247.93 247.93 0 0 1 9.37-5.27c-1.58 4.34-2.75 9.52-3.3 16.98-.7 8.77 2.88 20.14 7.6 24.62 2.09 1.96 4.56 2 6.15 2 5.5 0 7.97-4.57 10.72-9.97 3.36-6.63 6.39-14.32 6.39-14.32s-3.78 20.8 6.48 20.8c3.73 0 7.5-4.85 9.19-7.32v.04l.28-.46.6-.98v-.1c1.5-2.6 4.85-8.53 9.84-18.37 6.44-12.68 12.64-28.54 12.64-28.54s.56 3.87 2.47 10.31c1.12 3.78 3.45 7.93 5.32 11.94a78.84 78.84 0 0 1-2.43 3.26l.05.05c-1.21 1.58-2.52 3.3-3.97 4.99-5.08 6.06-11.14 13-11.98 15.01-.98 2.38-.74 4.1 1.12 5.5 1.35 1.03 3.78 1.17 6.25 1.03a28.71 28.71 0 0 0 9.37-2.14 31.45 31.45 0 0 0 8.07-4.25c4.99-3.68 8.02-8.95 7.74-15.9-.14-3.82-1.4-7.65-2.94-11.24.47-.65.89-1.3 1.35-1.96 7.88-11.51 14-24.15 14-24.15s.55 3.87 2.46 10.3c.94 3.27 2.85 6.81 4.53 10.26-7.42 6.02-11.99 13.01-13.62 17.58-2.94 8.5-.65 12.31 3.69 13.2 1.95.42 4.75-.51 6.8-1.4a30.98 30.98 0 0 0 8.63-4.43c4.99-3.68 9.8-8.81 9.51-15.76a29.8 29.8 0 0 0-2.14-9.33c6.3-2.6 14.4-4.05 24.76-2.84 22.2 2.61 26.58 16.46 25.74 22.29-.84 5.83-5.5 9-7.04 9.98-1.54.98-2.05 1.3-1.91 2 .18 1.03.93.98 2.23.8 1.82-.33 11.66-4.71 12.08-15.44.7-13.7-12.36-28.68-35.44-28.54ZM49.06 168.24c-7.37 8.02-17.63 11.05-22.06 8.49-4.76-2.75-2.9-14.6 6.15-23.08 5.5-5.18 12.6-9.98 17.3-12.92 1.08-.65 2.66-1.58 4.57-2.75.33-.19.52-.28.52-.28l1.12-.7c3.3 12.12.14 22.8-7.6 31.24Zm53.62-36.46c-2.56 6.25-7.93 22.24-11.2 21.35-2.79-.74-4.51-12.87-.55-24.85 2-6.02 6.25-13.2 8.72-16 4-4.47 8.44-5.96 9.51-4.14 1.35 2.37-4.9 19.72-6.48 23.64Zm44.25 21.17c-1.07.56-2.1.93-2.56.65-.33-.19.46-.93.46-.93s5.55-5.97 7.74-8.68c1.26-1.58 2.76-3.45 4.34-5.55v.61c0 7.14-6.9 11.94-9.98 13.9Zm34.14-7.79c-.8-.56-.66-2.42 2-8.25 1.03-2.29 3.45-6.11 7.6-9.8.47 1.5.8 2.94.75 4.3-.05 9-6.48 12.35-10.35 13.75Z"/>
</svg>
