<?xml version="1.0" encoding="UTF-8" standalone="no"?><!DOCTYPE svg PUBLIC "-//W3C//DTD SVG 1.1//EN" "http://www.w3.org/Graphics/SVG/1.1/DTD/svg11.dtd"><svg width="100%" height="100%" viewBox="0 0 3000 3000" version="1.1" xmlns="http://www.w3.org/2000/svg" xmlns:xlink="http://www.w3.org/1999/xlink" xml:space="preserve" xmlns:serif="http://www.serif.com/" style="fill-rule:evenodd;clip-rule:evenodd;stroke-linejoin:round;stroke-miterlimit:2;"><path d="M3000,300c0,-165.575 -134.425,-300 -300,-300l-2400,0c-165.575,0 -300,134.425 -300,300l0,2400c0,165.575 134.425,300 300,300l2400,0c165.575,0 300,-134.425 300,-300l0,-2400Z" style="fill:#c281e4;"/><path d="M2413.79,990.054c-61.279,27.691 -126.283,46.264 -192.942,55.126c68.908,-45.938 124.034,-110.252 147.004,-183.754c-64.314,36.751 -137.816,64.314 -215.912,78.096c-63.462,-66.728 -151.39,-104.886 -243.474,-105.659c-186.055,0.627 -338.8,153.888 -338.8,339.943c0,24.721 2.697,49.368 8.042,73.504c-272.148,-13.935 -526.037,-142.55 -698.266,-353.727c-89.891,153.335 -43.062,352.864 105.658,450.198c-55.126,0 -110.252,-18.375 -156.191,-41.345c0,165.379 119.44,303.195 275.632,335.352c-50.974,13.808 -104.495,15.382 -156.192,4.594c45.939,133.222 169.973,229.693 321.571,229.693c-142.997,112.249 -324.759,163.473 -505.325,142.409c151.597,91.878 330.758,151.598 519.106,151.598c3.432,0.037 6.864,0.055 10.295,0.055c524.185,0 955.523,-431.338 955.523,-955.522c0,-15.338 -0.369,-30.674 -1.108,-45.994c68.908,-45.939 124.035,-105.659 169.973,-174.567" style="fill:#d7c0ef;fill-rule:nonzero;"/></svg>