<?xml version="1.0" encoding="UTF-8" standalone="no"?>
<!DOCTYPE svg PUBLIC "-//W3C//DTD SVG 1.1//EN" "http://www.w3.org/Graphics/SVG/1.1/DTD/svg11.dtd">
<svg width="100%" height="100%" viewBox="0 0 3000 3000" version="1.1" xmlns="http://www.w3.org/2000/svg" xmlns:xlink="http://www.w3.org/1999/xlink" xml:space="preserve" xmlns:serif="http://www.serif.com/" style="fill-rule:evenodd;clip-rule:evenodd;stroke-linejoin:round;stroke-miterlimit:2;">
    <g id="Circle">
        <circle cx="1500" cy="1500" r="1500" style="fill:rgb(194,129,228);"/>
        <path d="M1500,0C2327.87,0 3000,672.127 3000,1500C3000,2327.87 2327.87,3000 1500,3000C672.127,3000 0,2327.87 0,1500C0,672.127 672.127,0 1500,0ZM1500,36C2308,36 2964,691.996 2964,1500C2964,2308 2308,2964 1500,2964C691.996,2964 36,2308 36,1500C36,691.996 691.996,36 1500,36Z" style="fill:rgb(215,192,239);"/>
    </g>
    <g id="Typography" transform="matrix(1.51646,0,0,1.51646,288.223,-915.618)">
        <path d="M1195.78,1384.8L1151.53,1384.8C1147.67,1369.4 1140.71,1351.12 1130.64,1329.96C1120.57,1308.79 1109.32,1288.8 1096.89,1269.99C1084.03,1250.32 1069.99,1233.11 1054.78,1218.36C1039.57,1203.61 1024.89,1195.16 1010.74,1193.02C997.46,1191.31 980.747,1190.03 960.603,1189.17C940.459,1188.32 921.815,1187.89 904.671,1187.89L867.39,1187.89L867.39,1915.87C867.39,1929.98 870.384,1942.92 876.37,1954.68C882.356,1966.44 892.832,1975.52 907.798,1981.94C915.495,1984.93 931.637,1988.99 956.224,1994.12C980.81,1999.25 999.945,2002.03 1013.63,2002.46L1013.63,2048L583.894,2048L583.894,2002.46C595.867,2001.61 614.147,1999.89 638.734,1997.33C663.32,1994.76 680.317,1991.56 689.724,1987.71C703.835,1982.15 714.204,1974.13 720.832,1963.66C727.46,1953.18 730.774,1939.18 730.774,1921.64L730.774,1187.89L693.573,1187.89C680.317,1187.89 663.855,1188.21 644.185,1188.85C624.516,1189.49 605.702,1190.88 587.743,1193.02C573.632,1194.73 558.987,1203.18 543.807,1218.36C528.628,1233.54 514.624,1250.75 501.796,1269.99C488.968,1289.23 477.637,1309.65 467.802,1331.24C457.967,1352.84 451.126,1370.69 447.278,1384.8L402.38,1384.8L402.38,1137.86L1195.78,1137.86L1195.78,1384.8Z" style="fill:rgb(245,226,255);fill-rule:nonzero;"/>
    </g>
</svg>
