<?xml version="1.0" encoding="UTF-8" standalone="no"?>
<!DOCTYPE svg PUBLIC "-//W3C//DTD SVG 1.1//EN" "http://www.w3.org/Graphics/SVG/1.1/DTD/svg11.dtd">
<svg width="100%" height="100%" viewBox="0 0 3000 3000" version="1.1" xmlns="http://www.w3.org/2000/svg" xmlns:xlink="http://www.w3.org/1999/xlink" xml:space="preserve" xmlns:serif="http://www.serif.com/" style="fill-rule:evenodd;clip-rule:evenodd;stroke-linejoin:round;stroke-miterlimit:2;">
    <g id="Circle">
        <circle cx="1500" cy="1500" r="1500" style="fill:rgb(194,129,228);"/>
        <path d="M1500,0C2327.87,0 3000,672.127 3000,1500C3000,2327.87 2327.87,3000 1500,3000C672.127,3000 0,2327.87 0,1500C0,672.127 672.127,0 1500,0ZM1500,36C2308,36 2964,691.996 2964,1500C2964,2308 2308,2964 1500,2964C691.996,2964 36,2308 36,1500C36,691.996 691.996,36 1500,36Z" style="fill:rgb(215,192,239);"/>
    </g>
    <g id="UI-UX-Design" serif:id="UI/UX Design" transform="matrix(1,0,0,1,-168.188,0)">
        <g transform="matrix(0.788419,0,0,0.766169,571.06,497.95)">
            <path d="M2735.98,411.004C2735.98,376.292 2708.6,348.109 2674.87,348.109L1040.91,348.109C1007.18,348.109 979.791,376.292 979.791,411.004L979.791,1857.58C979.791,1892.29 1007.18,1920.47 1040.91,1920.47L2674.87,1920.47C2708.6,1920.47 2735.98,1892.29 2735.98,1857.58L2735.98,411.004Z" style="fill:rgb(245,226,255);"/>
        </g>
        <g transform="matrix(1,0,0,1,156.454,27.3794)">
            <circle cx="1688.72" cy="1283.9" r="278.683" style="fill:rgb(188,150,230);"/>
        </g>
        <g transform="matrix(1,0,0,1,192.634,-141.783)">
            <path d="M1969.36,1367.01L2286.18,1916.56L1652.54,1916.56L1969.36,1367.01Z" style="fill:rgb(223,168,251);"/>
        </g>
        <g transform="matrix(0.788419,0,0,0.116915,571.06,1955.59)">
            <path d="M2735.98,442.451C2735.98,390.383 2729.72,348.109 2721.99,348.109L993.781,348.109C986.06,348.109 979.791,390.383 979.791,442.451L979.791,1826.13C979.791,1878.2 986.06,1920.47 993.781,1920.47L2721.99,1920.47C2729.72,1920.47 2735.98,1878.2 2735.98,1826.13L2735.98,442.451Z" style="fill:rgb(223,168,251);"/>
        </g>
        <g transform="matrix(0.788419,0,0,0.017841,571.06,2201.08)">
            <path d="M2735.98,442.451C2735.98,390.383 2735.03,348.109 2733.85,348.109L981.926,348.109C980.748,348.109 979.791,390.383 979.791,442.451L979.791,1826.13C979.791,1878.2 980.748,1920.47 981.926,1920.47L2733.85,1920.47C2735.03,1920.47 2735.98,1878.2 2735.98,1826.13L2735.98,442.451Z" style="fill:rgb(223,168,251);"/>
        </g>
        <g transform="matrix(0.391982,0,0,0.935331,224.153,439.063)">
            <path d="M2735.98,392.269C2735.98,367.897 2688.77,348.109 2630.61,348.109L1085.16,348.109C1027.01,348.109 979.791,367.897 979.791,392.269L979.791,1876.31C979.791,1900.68 1027.01,1920.47 1085.16,1920.47L2630.61,1920.47C2688.77,1920.47 2735.98,1900.68 2735.98,1876.31L2735.98,392.269Z" style="fill:rgb(188,150,230);"/>
        </g>
    </g>
</svg>
