<svg xmlns="http://www.w3.org/2000/svg" xml:space="preserve" fill-rule="evenodd" stroke-linejoin="round" stroke-miterlimit="2" clip-rule="evenodd" viewBox="0 0 3000 3000">
  <circle cx="1500" cy="1500" r="1500" fill="#c281e4"/>
  <path fill="#d7c0ef" d="M1500 0c827.9 0 1500 672.1 1500 1500s-672.1 1500-1500 1500S0 2327.9 0 1500 672.1 0 1500 0Zm0 36c808 0 1464 656 1464 1464s-656 1464-1464 1464S36 2308 36 1500 692 36 1500 36Z"/>
  <path fill="#f5e2ff" d="M2106.1 710v176.3h-202V710h-808.2v176.3H894V710h-75.3v1580H894v-176.3h202V2290h808.2v-176.3h202V2290h75.3V710H2106ZM1095.9 1827.8H894v202h202v-202Zm1010.2 0h-202v202h202v-202ZM1095.9 1542H894v202h202v-202Zm1010.2 0h-202v202h202v-202ZM1095.9 1256H894v202h202v-202Zm1010.2 0h-202v202h202v-202ZM1095.9 970.1H894v202h202v-202Zm1010.2 0h-202v202h202v-202Z"/>
</svg>
