<?xml version="1.0" encoding="UTF-8" standalone="no"?><!DOCTYPE svg PUBLIC "-//W3C//DTD SVG 1.1//EN" "http://www.w3.org/Graphics/SVG/1.1/DTD/svg11.dtd"><svg width="100%" height="100%" viewBox="0 0 3000 3000" version="1.1" xmlns="http://www.w3.org/2000/svg" xmlns:xlink="http://www.w3.org/1999/xlink" xml:space="preserve" xmlns:serif="http://www.serif.com/" style="fill-rule:evenodd;clip-rule:evenodd;stroke-linejoin:round;stroke-miterlimit:2;"><path d="M3000,300c0,-165.575 -134.425,-300 -300,-300l-2400,0c-165.575,0 -300,134.425 -300,300l0,2400c0,165.575 134.425,300 300,300l2400,0c165.575,0 300,-134.425 300,-300l0,-2400Z" style="fill:#c281e4;"/><path d="M2342.36,1107.81c-7.291,164.049 -122.126,389.162 -343.593,674.425c-229.213,297.568 -423.794,446.58 -581.92,446.58c-98.429,-0 -181.366,-90.683 -249.72,-272.049l-135.796,-498.984c-50.582,-181.366 -105.265,-272.505 -162.683,-272.505c-12.303,0 -56.505,26.431 -132.151,79.291l-79.29,-102.075c83.392,-72.911 165.416,-146.278 246.074,-219.644c110.734,-95.696 194.125,-145.822 249.72,-151.29c131.24,-12.76 211.897,77.467 242.429,268.859c32.81,207.34 55.594,336.301 68.354,386.427c37.822,171.797 79.29,257.923 124.86,257.923c35.088,-0 87.948,-56.051 159.036,-167.24c70.177,-111.645 108,-195.948 113.468,-254.732c10.025,-95.696 -27.797,-144.455 -113.923,-144.455c-40.101,0 -82.025,9.114 -124.404,27.342c82.48,-270.226 241.061,-401.922 474.376,-394.175c173.163,4.557 255.188,117.113 244.707,337.213l0.456,-0.911Z" style="fill:#d7c0ef;fill-rule:nonzero;"/></svg>