<svg xmlns="http://www.w3.org/2000/svg" xml:space="preserve" style="fill-rule:evenodd;clip-rule:evenodd;stroke-linejoin:round;stroke-miterlimit:2" viewBox="0 0 128 128"><path d="M0 0h512v512H0z" style="fill:none" transform="scale(.25)"/><g transform="matrix(.28 0 0 .28 -14.3 -15.4)"><circle cx="279.57" cy="283.5" r="228.5" style="fill:#886ce4"/><path d="M279.57 55c126.11 0 228.5 102.38 228.5 228.5 0 126.11-102.39 228.5-228.5 228.5S51.07 409.61 51.07 283.5C51.07 157.38 153.46 55 279.57 55Zm0 9.52c-120.86 0-218.98 98.12-218.98 218.98 0 120.86 98.12 218.98 218.98 218.98 120.86 0 218.98-98.12 218.98-218.98 0-120.86-98.12-218.98-218.98-218.98Z"/></g></svg>