<?xml version="1.0" encoding="UTF-8" standalone="no"?><!DOCTYPE svg PUBLIC "-//W3C//DTD SVG 1.1//EN" "http://www.w3.org/Graphics/SVG/1.1/DTD/svg11.dtd"><svg width="100%" height="100%" viewBox="0 0 62 62" version="1.1" xmlns="http://www.w3.org/2000/svg" xmlns:xlink="http://www.w3.org/1999/xlink" xml:space="preserve" xmlns:serif="http://www.serif.com/" style="fill-rule:evenodd;clip-rule:evenodd;stroke-linecap:round;stroke-linejoin:round;stroke-miterlimit:1.5;"><g id="Almond"><path d="M61.44,38.518c0,0 -2.076,-16.195 -34.565,-17.344c-17.679,-0.624 -11.199,25.85 -10.894,31.828c0.228,4.475 12.674,3.321 12.695,3.319c30.878,-3.145 32.741,-15.672 32.764,-17.803" style="fill:url(#_Linear1);"/><path d="M18.086,4.39c0,-0 -17.523,3.175 -18.086,33.382c0.967,19.714 18.178,19.281 18.178,19.281c-0,-0 18.218,-0.437 18.218,-19.571c-0,-19.133 -12.884,-33.062 -18.31,-33.092" style="fill:url(#_Linear2);"/><path d="M11.403,48.01c0,0 -2.366,-5.538 -2.471,-10.253c-0.245,-10.991 2.279,-16.608 4.302,-21.331" style="fill:none;stroke:url(#_Linear3);stroke-width:2px;"/><path d="M24.112,48.01c0,0 2.367,-5.538 2.472,-10.253c0.244,-10.991 -2.279,-16.608 -4.303,-21.331" style="fill:none;stroke:url(#_Linear4);stroke-width:2px;"/></g><defs><linearGradient id="_Linear1" x1="0" y1="0" x2="1" y2="0" gradientUnits="userSpaceOnUse" gradientTransform="matrix(46.8661,0,0,35.8891,14.5739,39.108)"><stop offset="0" style="stop-color:#713100;stop-opacity:1"/><stop offset="1" style="stop-color:#b55810;stop-opacity:1"/></linearGradient><linearGradient id="_Linear2" x1="0" y1="0" x2="1" y2="0" gradientUnits="userSpaceOnUse" gradientTransform="matrix(2.99904e-15,-48.9781,70.8715,4.33963e-15,18.198,54.5224)"><stop offset="0" style="stop-color:#c56b16;stop-opacity:1"/><stop offset="1" style="stop-color:#d08830;stop-opacity:1"/></linearGradient><linearGradient id="_Linear3" x1="0" y1="0" x2="1" y2="0" gradientUnits="userSpaceOnUse" gradientTransform="matrix(2.15962,-31.584,230.954,15.792,11.0748,48.0105)"><stop offset="0" style="stop-color:#903c15;stop-opacity:1"/><stop offset="1" style="stop-color:#ad5211;stop-opacity:1"/></linearGradient><linearGradient id="_Linear4" x1="0" y1="0" x2="1" y2="0" gradientUnits="userSpaceOnUse" gradientTransform="matrix(-2.15962,-31.584,-230.954,15.792,24.4407,48.0105)"><stop offset="0" style="stop-color:#903c15;stop-opacity:1"/><stop offset="1" style="stop-color:#ad5211;stop-opacity:1"/></linearGradient></defs></svg>