<?xml version="1.0" encoding="UTF-8" standalone="no"?>
<!DOCTYPE svg PUBLIC "-//W3C//DTD SVG 1.1//EN" "http://www.w3.org/Graphics/SVG/1.1/DTD/svg11.dtd">
<svg width="100%" height="100%" viewBox="0 0 512 512" version="1.1" xmlns="http://www.w3.org/2000/svg" xmlns:xlink="http://www.w3.org/1999/xlink" xml:space="preserve" xmlns:serif="http://www.serif.com/" style="fill-rule:evenodd;clip-rule:evenodd;stroke-linejoin:round;stroke-miterlimit:2;">
    <path d="M512,38.4C512,17.206 494.794,0 473.6,0L38.4,0C17.206,0 0,17.206 0,38.4L0,473.6C0,494.794 17.206,512 38.4,512L473.6,512C494.794,512 512,494.794 512,473.6L512,38.4Z" style="fill:rgb(11,22,27);"/>
    <g transform="matrix(10.8543,0,0,10.8543,64.779,321.113)">
        <g transform="matrix(16,0,0,16,0,0)">
            <path d="M0.365,-0.292L0.614,-0L0.507,-0L0.304,-0.234L0.102,-0L-0.002,-0L0.247,-0.291L0.015,-0.563L0.124,-0.563L0.308,-0.348L0.493,-0.563L0.598,-0.563L0.365,-0.292Z" style="fill:white;fill-rule:nonzero;"/>
        </g>
        <g transform="matrix(16,0,0,16,9.792,0)">
            <path d="M0.582,-0.392C0.646,-0.381 0.696,-0.36 0.73,-0.328C0.764,-0.296 0.781,-0.255 0.781,-0.205C0.781,-0.159 0.767,-0.12 0.738,-0.087C0.709,-0.055 0.668,-0.03 0.613,-0.013C0.559,0.004 0.493,0.013 0.417,0.013C0.34,0.013 0.274,0.004 0.22,-0.013C0.165,-0.03 0.124,-0.055 0.095,-0.087C0.066,-0.12 0.052,-0.159 0.052,-0.205C0.052,-0.255 0.069,-0.296 0.103,-0.328C0.137,-0.36 0.186,-0.381 0.25,-0.392C0.197,-0.405 0.156,-0.426 0.127,-0.456C0.098,-0.485 0.084,-0.521 0.084,-0.563C0.084,-0.605 0.097,-0.641 0.123,-0.671C0.149,-0.701 0.187,-0.723 0.237,-0.739C0.287,-0.755 0.347,-0.763 0.417,-0.763C0.486,-0.763 0.546,-0.755 0.596,-0.739C0.646,-0.723 0.684,-0.701 0.71,-0.671C0.736,-0.641 0.75,-0.605 0.75,-0.563C0.75,-0.52 0.735,-0.484 0.706,-0.455C0.677,-0.426 0.636,-0.405 0.582,-0.392ZM0.178,-0.558C0.178,-0.515 0.199,-0.482 0.241,-0.46C0.283,-0.437 0.342,-0.426 0.417,-0.426C0.491,-0.426 0.55,-0.437 0.592,-0.46C0.634,-0.482 0.656,-0.515 0.656,-0.558C0.656,-0.584 0.646,-0.607 0.627,-0.626C0.608,-0.645 0.581,-0.66 0.545,-0.67C0.509,-0.68 0.467,-0.686 0.417,-0.686C0.367,-0.686 0.324,-0.68 0.288,-0.67C0.252,-0.66 0.225,-0.645 0.206,-0.626C0.187,-0.607 0.178,-0.584 0.178,-0.558ZM0.417,-0.065C0.473,-0.065 0.522,-0.07 0.563,-0.081C0.603,-0.092 0.634,-0.109 0.655,-0.13C0.676,-0.152 0.687,-0.178 0.687,-0.209C0.687,-0.256 0.664,-0.291 0.618,-0.314C0.572,-0.337 0.505,-0.349 0.417,-0.349C0.328,-0.349 0.261,-0.337 0.215,-0.314C0.169,-0.29 0.147,-0.255 0.147,-0.209C0.147,-0.178 0.157,-0.152 0.178,-0.13C0.199,-0.109 0.23,-0.092 0.27,-0.081C0.311,-0.07 0.36,-0.065 0.417,-0.065Z" style="fill:white;fill-rule:nonzero;"/>
        </g>
        <g transform="matrix(16,0,0,16,23.12,0)">
            <path d="M0.467,-0.482C0.524,-0.482 0.575,-0.472 0.619,-0.453C0.663,-0.433 0.698,-0.405 0.722,-0.369C0.746,-0.333 0.758,-0.291 0.758,-0.242C0.758,-0.192 0.745,-0.147 0.718,-0.109C0.691,-0.07 0.653,-0.04 0.604,-0.019C0.554,0.002 0.497,0.013 0.433,0.013C0.354,0.013 0.286,-0.003 0.229,-0.036C0.172,-0.068 0.129,-0.114 0.099,-0.172C0.069,-0.231 0.054,-0.298 0.055,-0.375C0.054,-0.452 0.069,-0.519 0.098,-0.578C0.127,-0.636 0.17,-0.682 0.226,-0.714C0.281,-0.747 0.348,-0.763 0.427,-0.763C0.482,-0.763 0.531,-0.755 0.576,-0.738C0.62,-0.721 0.657,-0.697 0.685,-0.667C0.713,-0.637 0.731,-0.603 0.739,-0.564L0.646,-0.564C0.633,-0.601 0.608,-0.63 0.572,-0.651C0.536,-0.673 0.488,-0.684 0.428,-0.684C0.366,-0.684 0.314,-0.671 0.272,-0.647C0.23,-0.622 0.199,-0.587 0.179,-0.541C0.158,-0.495 0.148,-0.44 0.148,-0.377C0.148,-0.36 0.148,-0.344 0.15,-0.332C0.189,-0.379 0.235,-0.415 0.288,-0.442C0.342,-0.468 0.401,-0.482 0.467,-0.482ZM0.433,-0.067C0.48,-0.067 0.521,-0.074 0.556,-0.088C0.591,-0.102 0.617,-0.123 0.635,-0.149C0.654,-0.175 0.663,-0.205 0.663,-0.239C0.663,-0.272 0.655,-0.301 0.638,-0.325C0.622,-0.35 0.598,-0.369 0.566,-0.382C0.535,-0.395 0.497,-0.402 0.454,-0.402C0.395,-0.402 0.342,-0.389 0.293,-0.363C0.245,-0.337 0.202,-0.301 0.164,-0.255C0.182,-0.195 0.214,-0.148 0.26,-0.116C0.305,-0.083 0.363,-0.067 0.433,-0.067Z" style="fill:white;fill-rule:nonzero;"/>
        </g>
    </g>
</svg>
