<svg xmlns="http://www.w3.org/2000/svg" fill="none" viewBox="0 0 192 171">
	<path
		fill="black"
		d="M57 152c-7-6-15-11-20-19-11-14-20-30-26-46L2 54c-5-7 1-16 9-18 4-1 10-4 2-2-7 5-7-4 0-5 5-1 6-5 5-8-6-4 12-7 3-13-9-10 14-12 8 0-1 9 16-2 12 9 4 4 15 1 15 8 6 0 8 5 13 5 6 3 16 5 18 11-6 5-19-9-19 4 1 18 1 37 8 54 3 11 11 19 18 28 6 8 15 13 24 18 9 4 17 7 26 8 4-3 10-13 16-8 0 4-12 10-1 9 6-2 10 5 16-1 4 5 19-4 16 8-5 3-11 1-16 5-7-4-13 3-22 2l-27 3c-16-2-31-2-46-7-8-3-16-8-23-12Zm13 5 24 9c14 2 29 4 43 2-7-3-13 1-20-2-7 1-15-1-23-2-8-4-18-6-26-11-10-4 5 5 8 5 6 4-7-2-9-3-5-3-6-2 0 1l3 1Zm-15-10c8 3 0-6-4-5-1-3-6-5-3-6-5 2-6-8-8-6-6-2-2-9-10-13 0-4-7-8-9-14 0-4-7-13-3-4 3 8 9 16 14 23 4 7 8 14 15 18 2 3 5 6 8 7Zm-22-25c1 3 0-1 0 0Zm31 28c-2-1 2-1 0 0Zm4 2c-2 1 0-2 0 0Zm6 2c-4-2 2-3 0 0Zm9 5c-5-1 1-2 0 0Zm-18-12c-5 0 4-3 0 0Zm4 2c-1 0 0-2 0 0Zm20 12c3 2 18 4 9 1-2 0-18-5-9-1Zm-31-24c-5-2-1-2 0 0Zm9 5c-5-1 2-2 0 0Zm7 5c-5-1 4-1 0 0Zm-20-14c4 3 15 0 6-2-5-2-14-4-8 1l2 1Zm26 15c-7-1 1-2 0 0Zm-8-6c9 3-8-6-2-1l1 1h1Zm16 9c-8-1 8 0 0 0Zm-37-23c-3 0-1-2 0 0Zm51 31c-3 3 0-2 0 0Zm-37-22c-2 0 0-2 0 0Zm-14-10c-6-2 5-1 0 0Zm-16-11c-5-4-1-2 0 0Zm43 27c0 1-1-1 0 0Zm27 17c-2 0 0-2 0 0Zm-29-19c-5-1 0-2 0 0Zm-20-13c-6-2 3 0 0 0Zm34 21c-6-1 5-2 0 0Zm-18-12c7 1-8-4-2 0h2Zm23 14c6-3 4 9 10 2 7-5-5 5 3 0 5-3 13 2 19 4 3 0 7 3 11 1 7-2-15-3-9-6-7 2-12-3-15-7-8-2-16-6-20-12-2-3 2 0-1-4-5-4-7-9-10-14-4-2-4-7-5 0 0-5-4-8-5-6 0-5 5-3 1-6 0-5-3-10-4-15-1-3 0-8-3-2-2 6-1-8 1-3 3-5-1-4-1-4 2-4 1-9 0-7 1-4 1-15-2-13 2-4 4-20-4-14l-11 2c8 5-1 2-4 1 0 4-3 2-7 3 6 0-3 6-7 4-5 2 4 8 0 9 1 3-7-1-7 5-4-1 0 8 2 5 8 2 6 6 6 11-1 3-6-6-1-6-4-6-5-2-8 1-1 0 8 4 3 6 5 1 5 6 6 8 3 4 2-3 6 1-2-4-12-10-4-8 0-3-2-6 1-6 2-5-3 11 3 5 1-1 2-4 5 0 4 4 1 7-5 4 1 3 8 4 7 10 1 5 3 3 4 3 2 4 2 1 2-1 6 1 5 4 7 7 4 1-6-13 1-5 7 7 2 10-4 8 4 0 5 6 10 6 5 2 8 10 0 7-3-3-12-6-4-1l20 10c5 3 7 8 9 8-4 3-13-1-6-2-4-1-9-3-5 2 3 3 12 2 13 3-1 2-3 3 0 3-4 2 1 2 2 3Zm-8-22c-2-2-3-7-1-3 2 1 5 8 1 3Zm26 16c0 2 1 0 0 0Zm-30-22c1 3 0-4 0 0Zm-2-3c3 1-3-6 0 0ZM50 98c0 3 1 0 0 0Zm24 14c2 3 1-4 0 0ZM57 99c2 3-1-2 0 0Zm15 5c-3-6 2-3 0 1v-1ZM46 87l-3-10c1 3 7 13 3 4-4-7 5 3 6 4 0 2-3 0-1 4-3-5-2 3-5-2Zm-8-6c2 4 0-4 0 0Zm4 2c2 5 1-4 0 0Zm-9-7c-3-3-5-6 0-2 2 0-4-6 1-2 5 1 2 9-1 4Zm4 0c1 2 2-2 0 0Zm3 1c3 2-2-5 0 0Zm-5-5c-9-8 11 4 1 1l-1-1Zm24 14c-3-2-1-16 1-7 3-1 0 5 2 5 0 4-1 5-3 2Zm10 5c0 3 0-4 0 0Zm-2-1c0 2 0-2 0 0ZM36 69c-5-8 17 8 4 2l-4-2Zm18 9c1 1 0-6 0 0Zm13 9c1 2 1-4 0 0ZM37 66c4-1 14 6 4 2l-4-2Zm29 14c0-6 2-4 0 1v-1ZM40 64c1-2-4-9 0-3 2 2 6 3 3 3 5 5-2 2-3 0Zm24 14c1 5 1-7 0 0ZM37 57c0 1 1-1 0 0Zm6 4c3 3 2-4 0 0Zm18 10c1 2 0-2 0 0Zm-1-3c3 4-2-6 0 0Zm-1-4c1 3-1-2 0 0Zm2-4c-1-3 2-13 3-7-2 5-1 8 1 1 2-5-1 11-4 6Zm3-15c0 1 1-1 0 0Zm-4 84c0 1-2 0 0 0Zm8 5c5 1 5-1 1-1-3-3-10-5-3-1l2 2Zm-17-12c3 2 10 6 4 1 2-2-4-4-2-5-6-4-4-3-1-3-6-3 1-3 1-4-3-1-12-5-7 0-5-3-1 1-3 1-6-2 6 4-1 3 4 2 9 7 2 3-1 1 5 3 7 4Zm9 6c-5-5 11 3 0 0Zm47 28c-1 2 1-2 0 0Zm5 2c3-2 0 4 5 0 0-4-1-6-5-2-2 1-2 4 0 2Zm-77-48c-5-3-1-3 0 0Zm5 3c-7-3-2-3 0 0Zm30 18c3 3 13 2 3 0-1-2-9-1-3 0Zm40 25c-4 2 5-4 0 0Zm10 6c-2 1 0-1 0 0Zm0-1c-5 0 5-5 0 0ZM22 99c-4-6-2-9-6-13-1-4-7-13-3-4 3 6 4 14 9 17Zm96 60c-4-2 9-6 0 0Zm7 3c-3-1 5-4 0 0Zm-91-59c-4 0 1-2 0 0Zm90 57c4-3-1-2-1 0h1Zm-60-37c-2 0 0-2 0 0Zm4 2c-2 0-1-3 0 0Zm63 37c5-4-4-1-2 1l2-1Zm-2-1c-5 2 4-4 0 0Zm11 7c-4 0 3-2 0 0ZM36 102c5 1 17 10 10 0-4-1-2-10-6-8 3 4 2 6-3 3-7-3-4 2-2 3-2 1 2 2 1 2ZM18 87c0-3-7-17-4-7 1 2 1 6 4 7Zm34 21s-2-2 0 0Zm5 1c-5-1 0-3 0 0Zm46 29c-4 0-1-2 0 0Zm2 2c-2 0-1-2 0 0Zm18 11c-2 0 1-1 0 0ZM27 89c-5-1 5-1 0 0Zm72 46c-4 0 0-4 0 0ZM25 85c-3-1 3-1 0 0Zm9 4c-1 1 0-1 0 0Zm112 69c5-1 14 2 15-1-5 0-17-3-17 1h2ZM37 90c-2 0 0-3 0 0ZM13 73c-4-1-1-6 0 0Zm6 2c-6-2 0-2 0 0Zm3 1c-1 1-1 0 0 0Zm21 14c-3-1 1-1 0 0ZM20 73c-7-1-1-5 0 0ZM8 65c-1 1 0-2 0 0Zm2-1c-2 0-1-3 0 0Zm10 5c4-1-8-3-1 0h1Zm130 81c-4-1 2-3 0 0Zm15 8c-2 0 1-3 0 0ZM20 64c-3 1 1-3 0 0ZM7 55c-1-4-1-12 6-9-9 2 7 12 5 4 4 0 7-2 5 1 8 0 14-7 21-6l19-4c5 0 10-6 7-9-7-1-14 0-22 1-9 2-17 6-26 7-8 1 2 3 0 4-5 1 5 2-1 4-4-1-7-2-6-6-8 1-15 5-9 13h1Zm20-10c1-7 10 6 3 1l-3-1Zm0-3c1 1 3-3 0 0Zm3 0c1-4 9 1 2 1l-2-1Zm5-2c1 2 2-2 0 0Zm2-1c2-4 16-2 6 0-3-3-5 1-6 0Zm17-3c9 4 0-10 0 0Zm6 0c1-5 7-2 0-1v1ZM18 62c-5-3 6-4 0 0Zm5 1c-5-1 2-2 0 0Zm-13-9c-3 0 4-2 0 0Zm165 103c-3 1 0-3 0 0Zm-17-11c-2 0 0-4 0 0Zm21 12c5 0 14-1 4-1-2 0-9 0-4 1ZM26 61c4 0 6-4 0-4-10-1 8 4-2 2-1 1 2 2 2 2Zm3 2c-1 1 0-3 0 0Zm4-10c-2-1 2-2 0 0ZM21 33c7-3 15-5 18 1-3-4-1-8 2-2 4 5 6-3 4-5 3 4 6 6 2 1 4-6-10 0-13 0-2 1-17 4-13 5Zm4-8c4-2 13 2 7-2-1-1-13 3-7 2Zm13 1c5 0-2-6 4-3-1-3-6-3-9-4-1 2 3 7 5 7ZM27 14c-2 1 2-2 0 0Zm6 1c7-1-2-3-2 0h2ZM23 7c-5-6 9 1 4-5-4-4-8 3-4 5Zm62 34c2-4-9-5-2-2l2 2Z"
	/>
</svg>
