<?xml version="1.0" encoding="UTF-8" standalone="no"?>
<!DOCTYPE svg PUBLIC "-//W3C//DTD SVG 1.1//EN" "http://www.w3.org/Graphics/SVG/1.1/DTD/svg11.dtd">
<svg width="100%" height="100%" viewBox="0 0 29 29" version="1.1" xmlns="http://www.w3.org/2000/svg" xmlns:xlink="http://www.w3.org/1999/xlink" xml:space="preserve" xmlns:serif="http://www.serif.com/" style="fill-rule:evenodd;clip-rule:evenodd;stroke-linejoin:round;stroke-miterlimit:2;">
    <g id="Artboard1" transform="matrix(0.882008,0,0,0.882008,0,0)">
        <rect x="0" y="0" width="32" height="32" style="fill:none;"/>
        <g transform="matrix(1.13378,0,0,1.13378,-2.14043,-2.13853)">
            <path d="M15.124,5.3C15.124,4.844 15.5,4.468 15.956,4.468C16.412,4.468 16.788,4.844 16.788,5.3C16.788,5.756 16.412,6.132 15.956,6.132C15.956,6.132 15.955,6.132 15.955,6.132C15.499,6.132 15.124,5.757 15.124,5.301C15.124,5.301 15.124,5.3 15.124,5.3M5.2,12.834C5.2,12.378 5.576,12.002 6.032,12.002C6.488,12.002 6.864,12.378 6.864,12.834C6.864,13.29 6.488,13.666 6.032,13.666C5.576,13.666 5.2,13.29 5.2,12.834M25.056,12.873C25.056,12.417 25.432,12.041 25.888,12.041C26.344,12.041 26.72,12.417 26.72,12.873C26.72,13.329 26.344,13.705 25.888,13.705C25.888,13.705 25.887,13.705 25.887,13.705C25.431,13.705 25.056,13.33 25.056,12.874C25.056,12.874 25.056,12.873 25.056,12.873M7.605,14.013C7.984,13.844 8.158,13.393 7.991,13.013L7.622,12.178L9.074,12.178L9.074,18.723L6.144,18.723C5.782,17.453 5.67,16.125 5.812,14.812L7.605,14.013ZM13.679,14.174L13.679,12.245L17.137,12.245C17.316,12.245 18.398,12.451 18.398,13.261C18.398,13.933 17.568,14.174 16.885,14.174L13.679,14.174ZM8.958,24.561C8.958,24.105 9.334,23.729 9.79,23.729C10.246,23.729 10.622,24.105 10.622,24.561C10.622,25.017 10.246,25.393 9.79,25.393C9.79,25.393 9.789,25.393 9.789,25.393C9.333,25.393 8.958,25.018 8.958,24.562C8.958,24.562 8.958,24.561 8.958,24.561M21.289,24.6C21.289,24.144 21.665,23.768 22.121,23.768C22.577,23.768 22.953,24.144 22.953,24.6C22.953,25.056 22.577,25.432 22.121,25.432C21.665,25.432 21.289,25.056 21.289,24.6M21.546,22.713C21.494,22.702 21.441,22.696 21.388,22.696C21.031,22.696 20.72,22.948 20.646,23.297L20.228,25.246C17.511,26.476 14.388,26.461 11.683,25.205L11.266,23.256C11.179,22.849 10.773,22.586 10.366,22.673L8.645,23.043C8.325,22.714 8.028,22.363 7.755,21.994L16.129,21.994C16.224,21.994 16.287,21.977 16.287,21.894L16.287,18.928C16.287,18.842 16.224,18.828 16.129,18.828L13.679,18.828L13.679,16.947L16.328,16.947C17.14,16.955 17.834,17.556 17.957,18.359C18.062,18.772 18.293,20.116 18.451,20.546C18.608,21.029 19.251,21.993 19.933,21.993L24.256,21.993C23.966,22.382 23.649,22.749 23.307,23.093L21.546,22.713ZM26.196,14.892C26.255,15.483 26.262,16.078 26.218,16.671L25.167,16.671C25.062,16.671 25.019,16.74 25.019,16.843L25.019,17.326C25.019,18.462 24.378,18.71 23.819,18.773C23.284,18.833 22.691,18.549 22.619,18.222C22.541,17.074 21.919,16.03 20.948,15.414C21.978,14.76 23.048,13.795 23.048,12.503C23.005,11.389 22.399,10.37 21.44,9.8C20.781,9.373 20.023,9.124 19.24,9.076L8.367,9.076C9.87,7.396 11.885,6.259 14.1,5.84L15.382,7.184C15.525,7.334 15.724,7.419 15.931,7.419C16.126,7.419 16.313,7.344 16.454,7.21L17.888,5.838C20.846,6.393 23.414,8.223 24.903,10.838L23.921,13.055C23.754,13.435 23.928,13.885 24.307,14.055L26.196,14.892ZM28.644,14.928L28.611,14.585L29.622,13.642C29.697,13.564 29.739,13.459 29.739,13.351C29.739,13.236 29.692,13.126 29.609,13.047C29.574,13.013 29.533,12.986 29.488,12.966L28.2,12.483L28.1,12.149L28.906,11.029C29.029,10.834 28.971,10.572 28.776,10.448C28.735,10.422 28.69,10.404 28.643,10.393L27.28,10.171L27.116,9.865L27.689,8.608C27.708,8.559 27.718,8.507 27.718,8.454C27.718,8.282 27.613,8.127 27.453,8.064C27.406,8.046 27.357,8.036 27.307,8.035L25.924,8.083L25.7,7.819L26.018,6.472C26.022,6.448 26.024,6.424 26.024,6.4C26.024,6.196 25.876,6.02 25.675,5.985C25.627,5.977 25.579,5.977 25.531,5.985L24.183,6.3L23.917,6.081L23.966,4.7C23.961,4.473 23.772,4.289 23.545,4.289C23.542,4.289 23.538,4.289 23.535,4.289C23.487,4.29 23.439,4.3 23.394,4.317L22.137,4.89L21.831,4.726L21.609,3.363C21.558,3.139 21.333,2.996 21.109,3.045C21.062,3.056 21.017,3.074 20.976,3.1L19.855,3.906L19.522,3.806L19.039,2.513C18.946,2.302 18.695,2.205 18.484,2.298C18.44,2.318 18.399,2.345 18.364,2.378L17.418,3.39L17.075,3.357L16.347,2.18C16.268,2.068 16.14,2.002 16.003,2.002C15.866,2.002 15.738,2.068 15.659,2.18L14.931,3.357L14.588,3.39L13.645,2.378C13.478,2.219 13.209,2.226 13.05,2.393C13.017,2.428 12.99,2.469 12.97,2.513L12.483,3.8L12.15,3.9L11.03,3.1C10.835,2.977 10.573,3.035 10.449,3.23C10.423,3.271 10.405,3.316 10.394,3.363L10.172,4.726L9.866,4.89L8.608,4.317C8.393,4.234 8.148,4.342 8.064,4.556C8.047,4.602 8.037,4.651 8.036,4.7L8.084,6.083L7.818,6.3L6.471,5.984C6.447,5.98 6.423,5.978 6.399,5.978C6.195,5.978 6.019,6.126 5.984,6.327C5.976,6.375 5.976,6.423 5.984,6.471L6.3,7.819L6.082,8.084L4.7,8.036C4.473,8.042 4.289,8.231 4.289,8.458C4.289,8.51 4.298,8.561 4.317,8.609L4.89,9.866L4.726,10.172L3.363,10.394C3.139,10.444 2.996,10.67 3.045,10.894C3.056,10.941 3.074,10.986 3.1,11.027L3.906,12.147L3.806,12.481L2.513,12.964C2.302,13.057 2.205,13.308 2.298,13.519C2.318,13.564 2.345,13.605 2.379,13.64L3.39,14.583L3.357,14.926L2.18,15.654C2.068,15.733 2.002,15.861 2.002,15.998C2.002,16.135 2.068,16.263 2.18,16.342L3.357,17.07L3.39,17.413L2.379,18.356C2.22,18.523 2.227,18.792 2.394,18.951C2.429,18.984 2.469,19.011 2.513,19.031L3.806,19.514L3.906,19.848L3.1,20.972C3.057,21.039 3.035,21.117 3.035,21.197C3.035,21.341 3.109,21.476 3.231,21.553C3.272,21.579 3.317,21.597 3.364,21.608L4.727,21.83L4.891,22.137L4.318,23.394C4.235,23.609 4.343,23.855 4.558,23.939C4.604,23.956 4.652,23.966 4.701,23.967L6.084,23.919L6.303,24.185L5.986,25.533C5.946,25.76 6.1,25.979 6.327,26.019C6.375,26.028 6.425,26.028 6.473,26.019L7.818,25.7L8.084,25.918L8.035,27.3C8.04,27.526 8.227,27.71 8.454,27.71C8.457,27.71 8.461,27.71 8.464,27.71C8.513,27.709 8.561,27.7 8.607,27.682L9.864,27.109L10.17,27.273L10.392,28.635C10.442,28.859 10.667,29.003 10.892,28.954C10.939,28.944 10.984,28.925 11.025,28.899L12.145,28.092L12.479,28.192L12.962,29.484C13.056,29.695 13.307,29.791 13.518,29.698C13.562,29.678 13.602,29.651 13.637,29.618L14.58,28.607L14.923,28.641L15.651,29.818C15.785,30.007 16.05,30.052 16.239,29.918C16.278,29.891 16.312,29.857 16.339,29.818L17.067,28.641L17.41,28.607L18.353,29.618C18.52,29.777 18.789,29.77 18.948,29.603C18.981,29.568 19.008,29.528 19.028,29.484L19.511,28.192L19.845,28.092L20.965,28.899C21.032,28.942 21.11,28.964 21.19,28.964C21.334,28.964 21.469,28.89 21.546,28.768C21.572,28.727 21.59,28.682 21.601,28.635L21.823,27.273L22.129,27.109L23.386,27.682C23.601,27.765 23.846,27.657 23.93,27.443C23.947,27.397 23.957,27.349 23.958,27.3L23.91,25.916L24.175,25.698L25.522,26.015C25.749,26.055 25.968,25.902 26.009,25.675C26.017,25.627 26.017,25.577 26.009,25.529L25.7,24.183L25.918,23.917L27.301,23.965C27.532,23.959 27.717,23.765 27.711,23.534C27.71,23.485 27.701,23.437 27.683,23.392L27.11,22.135L27.274,21.828L28.637,21.606C28.861,21.556 29.005,21.331 28.956,21.106C28.945,21.058 28.926,21.013 28.9,20.971L28.094,19.851L28.194,19.517L29.487,19.034C29.639,18.967 29.738,18.816 29.738,18.65C29.738,18.591 29.726,18.533 29.702,18.48C29.682,18.435 29.655,18.394 29.621,18.359L28.61,17.416L28.643,17.073L29.82,16.345C29.932,16.266 29.998,16.138 29.998,16.001C29.998,15.864 29.932,15.736 29.82,15.657L28.644,14.928Z" style="fill:url(#_Radial1);fill-rule:nonzero;"/>
        </g>
    </g>
    <defs>
        <radialGradient id="_Radial1" cx="0" cy="0" r="1" gradientUnits="userSpaceOnUse" gradientTransform="matrix(13.998,0,0,-13.998,-314.929,194.337)"><stop offset="0" style="stop-color:rgb(125,125,125);stop-opacity:1"/><stop offset="0.27" style="stop-color:rgb(126,124,122);stop-opacity:1"/><stop offset="0.45" style="stop-color:rgb(129,120,113);stop-opacity:1"/><stop offset="0.61" style="stop-color:rgb(134,113,98);stop-opacity:1"/><stop offset="0.75" style="stop-color:rgb(141,104,76);stop-opacity:1"/><stop offset="0.89" style="stop-color:rgb(150,92,48);stop-opacity:1"/><stop offset="1" style="stop-color:rgb(160,79,18);stop-opacity:1"/></radialGradient>
    </defs>
</svg>
